<svg xmlns="http://www.w3.org/2000/svg" version="1.1" xmlns:xlink="http://www.w3.org/1999/xlink" xmlns:svgjs="http://svgjs.dev/svgjs" width="2000" height="429" viewBox="0 0 2000 429"><g transform="matrix(1,0,0,1,-1.2121212121212466,0.7896827101243673)"><svg viewBox="0 0 396 85" data-background-color="#ffffff" preserveAspectRatio="xMidYMid meet" height="429" width="2000" xmlns="http://www.w3.org/2000/svg" xmlns:xlink="http://www.w3.org/1999/xlink"><g id="tight-bounds" transform="matrix(1,0,0,1,0.2400000000000091,-0.15646394023443122)"><svg viewBox="0 0 395.52 85.31292788046885" height="85.31292788046885" width="395.52"><g><svg viewBox="0 0 619.22620772902 133.5659405382335" height="85.31292788046885" width="395.52"><g><rect width="11.985188415709983" height="133.5659405382335" x="180.34618052872887" y="0" fill="#152232" opacity="1" stroke-width="0" stroke="transparent" fill-opacity="1" class="rect-qz-0" data-fill-palette-color="primary" rx="1%" id="qz-0" data-palette-color="#152232"></rect></g><g transform="matrix(1,0,0,1,223.70620772901995,0.33225358342843947)"><svg viewBox="0 0 395.52 132.9014333713766" height="132.9014333713766" width="395.52"><g id="textblocktransform"><svg viewBox="0 0 395.52 132.9014333713766" height="132.9014333713766" width="395.52" id="textblock"><g><svg viewBox="0 0 395.52 132.9014333713766" height="132.9014333713766" width="395.52"><g transform="matrix(1,0,0,1,0,0)"><svg width="395.52" viewBox="2 -34.85178493576 105.19833333333 35.35178493576" height="132.9014333713766" data-palette-color="#152232"><path d="M18.35 0L2.2 0Q2 0 2-0.25L2-0.25 2.05-34.6Q2.05-34.8 2.25-34.8L2.25-34.8 18.3-34.8Q18.5-34.8 18.5-34.55L18.5-34.55 18.5-28.95Q18.5-28.75 18.3-28.75L18.3-28.75 8.05-28.75 8.05-20.95 18.3-20.95Q18.5-20.95 18.5-20.75L18.5-20.75 18.55-15.1Q18.55-14.9 18.35-14.9L18.35-14.9 8.05-14.9 8.05-6.15 18.35-6.15Q18.55-6.15 18.55-5.9L18.55-5.9 18.55-0.2Q18.55 0 18.35 0L18.35 0ZM32.2-0.05L23.25 0Q23 0 23-0.25L23-0.25 23.1-34.6Q23.1-34.8 23.3-34.8L23.3-34.8 32.65-34.85Q35.4-34.9 37.67-33.55 39.95-32.2 41.3-29.93 42.65-27.65 42.65-24.9L42.65-24.9 42.65-10.55Q42.65-7.65 41.25-5.28 39.85-2.9 37.5-1.5 35.15-0.1 32.2-0.05L32.2-0.05ZM29.15-28.8L29.1-6.15 32.2-6.15Q34.05-6.15 35.32-7.45 36.6-8.75 36.6-10.55L36.6-10.55 36.6-24.95Q36.6-26.55 35.42-27.73 34.25-28.9 32.65-28.85L32.65-28.85 29.15-28.8ZM55.65 0.5L55.65 0.5Q53 0.5 50.75-0.88 48.49-2.25 47.17-4.55 45.84-6.85 45.84-9.6L45.84-9.6 45.95-34.6Q45.95-34.8 46.15-34.8L46.15-34.8 51.75-34.8Q51.95-34.8 51.95-34.6L51.95-34.6 51.95-9.6Q51.95-7.9 53.02-6.73 54.09-5.55 55.65-5.55L55.65-5.55Q57.25-5.55 58.32-6.73 59.4-7.9 59.4-9.6L59.4-9.6 59.4-34.6Q59.4-34.8 59.59-34.8L59.59-34.8 65.19-34.8Q65.4-34.8 65.4-34.6L65.4-34.6 65.5-9.6Q65.5-6.8 64.17-4.5 62.84-2.2 60.62-0.85 58.4 0.5 55.65 0.5ZM81.09 0L75.04 0Q74.84 0 74.79-0.25L74.79-0.25 67.89-34.6Q67.84-34.8 68.09-34.8L68.09-34.8 73.74-34.8Q73.94-34.8 73.99-34.6L73.99-34.6 78.09-11.7 82.09-34.6Q82.14-34.8 82.34-34.8L82.34-34.8 87.94-34.8Q88.19-34.8 88.14-34.6L88.14-34.6 81.34-0.25Q81.29 0 81.09 0L81.09 0ZM87.29-0.25L87.29-0.25 93.49-34.6Q93.54-34.8 93.74-34.8L93.74-34.8 100.99-34.8Q101.19-34.8 101.24-34.6L101.24-34.6 107.19-0.25Q107.24 0 106.99 0L106.99 0 101.44 0Q101.24 0 101.19-0.25L101.19-0.25 100.64-3.9 93.84-3.9 93.29-0.25Q93.24 0 93.04 0L93.04 0 87.49 0Q87.29 0 87.29-0.25ZM97.09-23.3L94.84-9.25 99.64-9.25 97.59-23.3 97.29-25.15 97.09-23.3Z" opacity="1" transform="matrix(1,0,0,1,0,0)" fill="#152232" class="wordmark-text-0" data-fill-palette-color="primary" id="text-0"></path></svg></g></svg></g></svg></g></svg></g><g transform="matrix(1,0,0,1,0,0.33225358342843947)"><svg viewBox="0 0 148.97134174414776 132.9014333713766" height="132.9014333713766" width="148.97134174414776"><g><svg xmlns="http://www.w3.org/2000/svg" xmlns:xlink="http://www.w3.org/1999/xlink" version="1.1" x="0" y="0" viewBox="8.386999999999999 13.004999999999999 84.192 75.11" enable-background="new 0 0 100 100" xml:space="preserve" height="132.9014333713766" width="148.97134174414776" class="icon-icon-0" data-fill-palette-color="accent" id="icon-0"><g fill="#1c7ed6" data-fill-palette-color="accent"><path d="M49.569 22.967c-9.975-5.691-20.677-9.125-31.045-9.962v58.351c10.367 0.814 21.05 4.154 31.045 9.699V22.967z" fill="#1c7ed6" data-fill-palette-color="accent"></path><path d="M82.444 13.005c-10.368 0.838-21.071 4.271-31.045 9.962v58.087c9.993-5.545 20.679-8.885 31.045-9.699V13.005z" fill="#1c7ed6" data-fill-palette-color="accent"></path><path d="M49.229 84.073c0.814 0.278 1.671 0.29 2.485 0.012 11.657-5.043 23.865-7.313 35.798-6.79V19.524c-1.074-0.048-2.155-0.059-3.24-0.055v53.594l-0.852 0.056c-10.672 0.697-21.732 4.177-32.021 10.048-0.594 0.203-1.237 0.203-1.83 0-10.29-5.871-21.349-9.351-32.021-10.048l-0.854-0.056V19.469c-1.084-0.004-2.166 0.006-3.239 0.055v57.771C25.387 76.771 37.569 79.03 49.229 84.073z" fill="#1c7ed6" data-fill-palette-color="accent"></path><path d="M92.579 26.009c-1.07-0.149-2.157-0.228-3.237-0.335v53.55l-0.968-0.056c-12.195-0.699-25.06 1.777-36.975 7.065l-0.916 0.381-0.915-0.381c-11.917-5.288-24.781-7.765-36.976-7.065l-0.967 0.056v-53.55c-1.081 0.108-2.168 0.187-3.238 0.335v58.707c0.594 0.307 1.044 0.748 1.044 0.748 12.951-1.75 26.393-1.536 39.18 2.651 0.588-0.058 1.212-0.095 1.873-0.095 0.661 0 1.285 0.037 1.872 0.095 12.785-4.188 26.229-4.401 39.179-2.651 0 0 0.474-0.462 1.044-0.748V26.009z" fill="#1c7ed6" data-fill-palette-color="accent"></path></g></svg></g></svg></g></svg></g><defs></defs></svg><rect width="395.52" height="85.31292788046885" fill="none" stroke="none" visibility="hidden"></rect></g></svg></g></svg>